<svg width="120" height="120" viewBox="0 0 120 120" fill="none" xmlns="http://www.w3.org/2000/svg">
<g clip-path="url(#clip0_757_53)">
<path d="M59.9925 0C26.865 0 3.46236e-05 26.97 3.46236e-05 60.24C-0.0135 72.8666 3.94139 85.1782 11.3058 95.4347C18.6702 105.691 29.0716 113.374 41.04 117.397C44.04 117.952 45.135 116.092 45.135 114.495C45.135 113.062 45.0825 109.275 45.0525 104.25C28.365 107.887 24.84 96.1725 24.84 96.1725C22.1175 89.2125 18.18 87.36 18.18 87.36C12.7275 83.625 18.585 83.7 18.585 83.7C24.6075 84.1275 27.7725 89.91 27.7725 89.91C33.1275 99.1125 41.82 96.4575 45.24 94.9125C45.78 91.02 47.3325 88.365 49.05 86.8575C35.73 85.335 21.72 80.1675 21.72 57.09C21.72 50.5125 24.06 45.135 27.9 40.92C27.2775 39.3975 25.2225 33.27 28.485 24.9825C28.485 24.9825 33.525 23.3625 44.985 31.155C49.8806 29.8171 54.9324 29.1361 60.0075 29.13C65.0829 29.1401 70.1345 29.8235 75.03 31.1625C86.4825 23.37 91.515 24.99 91.515 24.99C94.785 33.285 92.73 39.405 92.115 40.9275C95.9625 45.1425 98.28 50.52 98.28 57.0975C98.28 80.235 84.255 85.3275 70.89 86.82C73.0425 88.68 74.9625 92.355 74.9625 97.9725C74.9625 106.027 74.8875 112.522 74.8875 114.495C74.8875 116.107 75.9675 117.983 79.0125 117.39C90.9694 113.357 101.358 105.671 108.712 95.4173C116.066 85.1632 120.015 72.8586 120 60.24C120 26.97 93.135 0 59.9925 0Z" fill="#12130F"/>
</g>
<defs>
<clipPath id="clip0_757_53">
<rect width="120" height="120" fill="white"/>
</clipPath>
</defs>
</svg>
