<svg width="120" height="120" viewBox="0 0 120 120" fill="none" xmlns="http://www.w3.org/2000/svg">
<path fill-rule="evenodd" clip-rule="evenodd" d="M60 0C43.705 0 41.6625 0.069993 35.2625 0.359993C28.875 0.652493 24.5125 1.66749 20.6975 3.14999C16.7525 4.68249 13.405 6.735 10.0725 10.07C6.73498 13.405 4.68252 16.7525 3.15002 20.6975C1.66752 24.515 0.650031 28.875 0.360031 35.2625C0.0700311 41.6625 0 43.705 0 60C0 76.295 0.0700311 78.3375 0.360031 84.7375C0.652531 91.125 1.66752 95.4875 3.15002 99.3025C4.68252 103.247 6.73504 106.595 10.07 109.927C13.405 113.265 16.7525 115.317 20.6975 116.852C24.515 118.332 28.875 119.348 35.2625 119.64C41.6625 119.93 43.705 120 60 120C76.295 120 78.3375 119.93 84.7375 119.64C91.125 119.348 95.4875 118.333 99.3025 116.85C103.248 115.318 106.595 113.265 109.928 109.93C113.265 106.595 115.318 103.247 116.853 99.3025C118.333 95.485 119.348 91.125 119.64 84.7375C119.93 78.3375 120 76.295 120 60C120 43.705 119.93 41.6625 119.64 35.2625C119.348 28.875 118.332 24.5125 116.85 20.6975C115.317 16.7525 113.265 13.405 109.93 10.0725C106.595 6.73502 103.248 4.68249 99.3025 3.14999C95.485 1.66749 91.125 0.649993 84.7375 0.359993C78.3375 0.069993 76.295 0 60 0ZM60 10.81C76.02 10.81 77.9175 10.8725 84.245 11.16C90.095 11.4275 93.2701 12.405 95.3876 13.2275C98.1876 14.315 100.187 15.615 102.287 17.715C104.385 19.815 105.685 21.815 106.772 24.615C107.597 26.7275 108.573 29.905 108.84 35.755C109.128 42.08 109.19 43.98 109.19 60C109.19 76.02 109.128 77.9175 108.84 84.245C108.573 90.095 107.595 93.27 106.772 95.3875C105.685 98.1875 104.385 100.187 102.285 102.287C100.185 104.385 98.185 105.685 95.385 106.772C93.2725 107.597 90.095 108.572 84.245 108.84C77.92 109.127 76.02 109.19 60 109.19C43.9775 109.19 42.08 109.127 35.755 108.84C29.905 108.572 26.73 107.595 24.6125 106.772C21.8125 105.685 19.8125 104.385 17.7125 102.285C15.615 100.185 14.315 98.185 13.2275 95.385C12.4025 93.2725 11.4275 90.095 11.16 84.245C10.8725 77.92 10.81 76.02 10.81 60C10.81 43.98 10.8725 42.0825 11.16 35.755C11.4275 29.905 12.405 26.73 13.2275 24.6125C14.315 21.8125 15.615 19.8125 17.715 17.7125C19.815 15.615 21.815 14.315 24.615 13.2275C26.7275 12.4025 29.905 11.4275 35.755 11.16C42.08 10.8725 43.98 10.81 60 10.81ZM60 29.19C42.9825 29.19 29.19 42.9825 29.19 60C29.19 77.0175 42.9825 90.81 60 90.81C77.0175 90.81 90.8099 77.0175 90.8099 60C90.8099 42.9825 77.0175 29.19 60 29.19ZM60 80C54.6957 80 49.6086 77.8929 45.8578 74.1422C42.1071 70.3914 40 65.3043 40 60C40 54.6957 42.1071 49.6086 45.8578 45.8578C49.6086 42.1071 54.6957 40 60 40C65.3043 40 70.3914 42.1071 74.1422 45.8578C77.8929 49.6086 80 54.6957 80 60C80 65.3043 77.8929 70.3914 74.1422 74.1422C70.3914 77.8929 65.3043 80 60 80ZM99.2274 27.9725C99.2274 29.882 98.4689 31.7134 97.1187 33.0637C95.7684 34.4139 93.937 35.1725 92.0274 35.1725C90.1179 35.1725 88.2866 34.4139 86.9363 33.0637C85.5861 31.7134 84.8276 29.882 84.8276 27.9725C84.8276 26.0629 85.5861 24.2316 86.9363 22.8813C88.2866 21.5311 90.1179 20.7725 92.0274 20.7725C93.937 20.7725 95.7684 21.5311 97.1187 22.8813C98.4689 24.2316 99.2274 26.0629 99.2274 27.9725Z" fill="#12130F"/>
</svg>
