<svg width="120" height="108" viewBox="0 0 120 108" fill="none" xmlns="http://www.w3.org/2000/svg">
<g clip-path="url(#clip0_761_25)">
<path d="M103.902 0.397461H16.0976C7.00565 0.397461 -0.365845 8.3977 -0.365845 18.2651V89.7357C-0.365845 99.6031 7.00565 107.603 16.0976 107.603H103.902C112.994 107.603 120.366 99.6031 120.366 89.7357V18.2651C120.366 8.3977 112.994 0.397461 103.902 0.397461ZM103.902 12.3092C104.536 12.3092 105.145 12.4254 105.711 12.6413L60 52.3298L14.2893 12.6413C14.8704 12.4203 15.4819 12.308 16.0976 12.3092H103.902ZM103.902 95.6916H16.0976C14.6421 95.6916 13.2463 95.0641 12.2171 93.9471C11.1879 92.8302 10.6098 91.3153 10.6098 89.7357V24.7004L56.5715 64.6063C57.573 65.4774 58.7858 65.9122 60 65.9122C61.2142 65.9122 62.427 65.4774 63.4285 64.6063L109.39 24.7004V89.7357C109.39 91.3153 108.812 92.8302 107.783 93.9471C106.754 95.0641 105.358 95.6916 103.902 95.6916Z" fill="#12130F"/>
</g>
<defs>
<clipPath id="clip0_761_25">
<rect width="120" height="108" fill="white"/>
</clipPath>
</defs>
</svg>
