<svg width="120" height="120" viewBox="0 0 120 120" fill="none" xmlns="http://www.w3.org/2000/svg">
<g clip-path="url(#clip0_757_51)">
<path fill-rule="evenodd" clip-rule="evenodd" d="M82.9618 0.100781C82.9688 1.93125 83.5032 28.3852 111.265 30.0352C111.265 37.6641 111.274 43.1953 111.274 50.475C109.172 50.5969 92.9977 49.4227 82.9313 40.4437L82.9008 80.2359C83.2829 107.855 62.9579 124.662 36.3915 118.856C-9.41949 105.152 5.80317 37.207 51.8016 44.4797C51.8016 66.4148 51.8133 44.4727 51.8133 66.4148C32.8102 63.6187 26.454 79.4273 31.5047 90.7453C36.0985 101.051 55.0196 103.284 61.6196 88.7461C62.3672 85.9008 62.7399 82.657 62.7399 79.0148V0L82.9618 0.100781Z" fill="#12130F"/>
</g>
<defs>
<clipPath id="clip0_757_51">
<rect width="120" height="120" fill="white"/>
</clipPath>
</defs>
</svg>
