<?xml version="1.0" standalone="no"?>
<!DOCTYPE svg PUBLIC "-//W3C//DTD SVG 20010904//EN"
 "http://www.w3.org/TR/2001/REC-SVG-20010904/DTD/svg10.dtd">
<svg version="1.0" xmlns="http://www.w3.org/2000/svg"
 width="1200.000000pt" height="1200.000000pt" viewBox="0 0 1200.000000 1200.000000"
 preserveAspectRatio="xMidYMid meet">

<g transform="translate(0.000000,1200.000000) scale(0.100000,-0.100000)"
fill="#72B01D" stroke="none">
<path d="M4190 11893 c-263 -6 -821 -34 -967 -49 -671 -66 -1259 -263 -1708
-572 -275 -189 -559 -469 -755 -742 -278 -387 -467 -868 -560 -1425 -38 -229
-57 -424 -77 -835 -16 -304 -18 -573 -18 -2250 0 -1887 3 -2136 36 -2610 34
-503 120 -908 276 -1305 177 -448 437 -817 812 -1152 387 -346 873 -584 1456
-713 283 -63 548 -92 1045 -117 314 -16 573 -18 2255 -18 1880 0 2140 4 2605
36 984 67 1712 357 2284 909 520 502 831 1149 946 1970 23 164 40 374 57 706
16 309 18 568 18 2274 0 1697 -2 1966 -18 2270 -27 547 -63 838 -141 1147
-160 636 -421 1102 -852 1524 -353 344 -733 570 -1229 728 -453 145 -820 191
-1765 221 -261 8 -3369 11 -3700 3z m3890 -1072 c129 -6 312 -16 405 -21 818
-51 1360 -275 1760 -727 312 -353 482 -801 544 -1438 6 -55 18 -269 28 -475
15 -327 18 -601 18 -2140 0 -1740 -4 -2022 -36 -2510 -49 -764 -246 -1277
-639 -1670 -392 -392 -907 -590 -1665 -639 -485 -32 -777 -36 -2510 -36 -1538
0 -1808 2 -2140 18 -209 10 -425 22 -480 28 -588 57 -1025 211 -1358 476 -502
401 -751 961 -806 1818 -32 484 -36 778 -36 2495 0 1717 4 2011 36 2495 55
857 303 1417 806 1818 362 288 846 445 1503 486 159 11 664 30 895 35 371 8
3466 -3 3675 -13z"/>
<path d="M9023 9850 c-216 -39 -412 -191 -509 -395 -50 -105 -67 -184 -67
-305 0 -126 18 -201 76 -320 33 -69 58 -102 132 -175 73 -74 106 -99 175 -132
119 -58 194 -76 320 -76 121 0 200 17 305 67 188 89 327 257 383 460 12 43 17
98 16 186 0 107 -4 136 -27 205 -37 113 -90 198 -177 285 -135 135 -282 199
-470 205 -58 2 -128 0 -157 -5z"/>
<path d="M5720 9019 c-586 -55 -1144 -280 -1610 -649 -124 -98 -377 -349 -474
-470 -488 -611 -726 -1398 -655 -2170 118 -1300 1049 -2376 2319 -2680 253
-60 385 -74 700 -74 245 0 305 3 430 22 252 39 456 93 675 179 378 148 718
369 1013 657 481 471 780 1058 883 1736 21 136 24 190 23 435 0 238 -3 302
-22 425 -85 553 -291 1028 -633 1461 -96 123 -349 377 -469 473 -409 327 -918
552 -1425 630 -225 35 -539 46 -755 25z m451 -1059 c709 -69 1310 -488 1609
-1123 353 -749 197 -1640 -390 -2227 -337 -337 -758 -530 -1247 -572 -314 -26
-675 39 -967 176 -568 265 -976 777 -1101 1383 -136 653 64 1323 535 1793 411
412 996 625 1561 570z"/>
</g>
</svg>
